<svg width="1200" height="1200" viewBox="0 0 1200 1200" fill="none" xmlns="http://www.w3.org/2000/svg">
<path d="M481 940C481 1052.67 389.666 1144 277 1144C164.334 1144 73 1052.67 73 940C73 827.334 164.334 736 277 736C389.666 736 481 827.334 481 940ZM481 940V58C481 56.8955 481.895 56 483 56H1125C1126.1 56 1127 56.8954 1127 58V804M1127 804C1127 916.666 1035.67 1008 923 1008C810.334 1008 719 916.666 719 804C719 691.334 810.334 600 923 600C1035.67 600 1127 691.334 1127 804Z" stroke="#01C915" stroke-width="80"/>
</svg>
