<svg width="60" height="59" viewBox="0 0 60 59" fill="none" xmlns="http://www.w3.org/2000/svg">
<path d="M41.7396 27.6765C84.9116 23.2519 39.1165 84.7756 29.2492 44.0828C30.7901 76.5725 -29.5753 31.4551 18.8412 27.6765C-23.3305 30.9677 24.5453 -21.8655 30.7901 15.0489C29.2492 -21.8655 89.0745 19.7556 41.7396 27.6765Z" fill="url(#paint0_linear_512_72)"/>
<path d="M29.9607 38.931C29.2825 38.931 28.7006 38.6882 28.2149 38.2025C27.7292 37.7168 27.4863 37.1348 27.4863 36.4567C27.4863 35.7785 27.7292 35.1966 28.2149 34.7109C28.7006 34.2252 29.2825 33.9823 29.9607 33.9823C30.6388 33.9823 31.2207 34.2252 31.7065 34.7109C32.1922 35.1966 32.435 35.7785 32.435 36.4567C32.435 36.9057 32.3205 37.3181 32.0913 37.6939C31.8714 38.0696 31.5736 38.372 31.1978 38.6011C30.8313 38.8211 30.4189 38.931 29.9607 38.931ZM29.9607 23.2602C29.2825 23.2602 28.7006 23.0173 28.2149 22.5316C27.7292 22.0459 27.4863 21.464 27.4863 20.7859C27.4863 20.1077 27.7292 19.5258 28.2149 19.0401C28.7006 18.5544 29.2825 18.3115 29.9607 18.3115C30.6388 18.3115 31.2207 18.5544 31.7065 19.0401C32.1922 19.5258 32.435 20.1077 32.435 20.7859C32.435 21.2349 32.3205 21.6473 32.0913 22.023C31.8714 22.3988 31.5736 22.7012 31.1978 22.9303C30.8313 23.1502 30.4189 23.2602 29.9607 23.2602Z" fill="black"/>
<defs>
<linearGradient id="paint0_linear_512_72" x1="-164.879" y1="-125.098" x2="210.332" y2="136.472" gradientUnits="userSpaceOnUse">
<stop offset="0.4" stop-color="#01C915"/>
<stop offset="1"/>
</linearGradient>
</defs>
</svg>
