<svg width="424" height="414" viewBox="0 0 424 414" fill="none" xmlns="http://www.w3.org/2000/svg">
<path d="M294.686 197.286C599.486 165.746 276.166 604.305 206.502 314.235C217.38 545.83 -208.808 224.221 133.02 197.286C-164.719 220.747 173.291 -155.863 217.381 107.273C206.502 -155.863 628.877 140.824 294.686 197.286Z" fill="url(#paint0_linear_1184_77)"/>
<path d="M212.152 277.32C203.054 277.191 195.257 269.694 195.517 260.516C195.257 251.468 203.054 243.971 212.152 243.971C221.379 243.971 228.917 251.468 228.787 260.516C228.917 269.694 221.379 277.191 212.152 277.32ZM195.517 156.592C195.257 147.543 203.054 140.046 212.152 140.046C221.379 140.046 228.917 147.543 228.787 156.592C228.917 165.769 221.379 173.266 212.152 173.395C203.054 173.266 195.257 165.769 195.517 156.592Z" fill="black"/>
<defs>
<linearGradient id="paint0_linear_1184_77" x1="170.014" y1="-1596.77" x2="163.214" y2="1640.6" gradientUnits="userSpaceOnUse">
<stop offset="0.55" stop-color="#01C915"/>
</linearGradient>
</defs>
</svg>
