<svg width="280" height="280" viewBox="0 0 280 280" fill="none" xmlns="http://www.w3.org/2000/svg">
<g clip-path="url(#clip0_687_76)">
<path d="M0 54.4444C0 24.3756 24.3756 0 54.4444 0H225.556C255.624 0 280 24.3756 280 54.4444V225.556C280 255.624 255.624 280 225.556 280H54.4444C24.3756 280 0 255.624 0 225.556V54.4444Z" fill="black"/>
<path d="M188.436 134.78C364.723 116.11 177.725 375.706 137.434 204.005C143.726 341.093 -102.768 150.723 94.9342 134.78C-77.268 148.666 118.226 -74.2601 143.726 81.4982C137.434 -74.2602 381.722 101.358 188.436 134.78Z" fill="url(#paint0_linear_687_76)"/>
<path d="M140 182C137.259 182 134.907 181.022 132.944 179.067C130.981 177.112 130 174.77 130 172.04C130 169.31 130.981 166.968 132.944 165.013C134.907 163.058 137.259 162.08 140 162.08C142.741 162.08 145.093 163.058 147.056 165.013C149.019 166.968 150 169.31 150 172.04C150 173.848 149.537 175.508 148.611 177.02C147.722 178.532 146.519 179.75 145 180.672C143.519 181.557 141.852 182 140 182ZM140 118.92C137.259 118.92 134.907 117.942 132.944 115.987C130.981 114.032 130 111.69 130 108.96C130 106.23 130.981 103.888 132.944 101.933C134.907 99.9775 137.259 99 140 99C142.741 99 145.093 99.9775 147.056 101.933C149.019 103.888 150 106.23 150 108.96C150 110.768 149.537 112.428 148.611 113.94C147.722 115.452 146.519 116.67 145 117.592C143.519 118.477 141.852 118.92 140 118.92Z" fill="black"/>
</g>
<defs>
<linearGradient id="paint0_linear_687_76" x1="140.5" y1="-1028.54" x2="117.184" y2="1280.07" gradientUnits="userSpaceOnUse">
<stop offset="0.35" stop-color="white"/>
<stop offset="0.505" stop-color="#01C915"/>
<stop offset="0.735"/>
</linearGradient>
<clipPath id="clip0_687_76">
<rect width="280" height="280" fill="white"/>
</clipPath>
</defs>
</svg>
