<svg width="48" height="48" viewBox="0 0 48 48" fill="none" xmlns="http://www.w3.org/2000/svg">
<g clip-path="url(#clip0_687_71)">
<path d="M0 9.33333C0 4.17867 4.17868 0 9.33333 0H38.6667C43.8213 0 48 4.17868 48 9.33333V38.6667C48 43.8213 43.8213 48 38.6667 48H9.33333C4.17867 48 0 43.8213 0 38.6667V9.33333Z" fill="black"/>
<path d="M32.2177 23.0193C62.4382 19.8189 30.3815 64.321 23.4743 34.8866C24.553 58.3874 -17.703 25.7525 16.1887 23.0193C-13.3317 25.4 20.1816 -12.816 24.553 13.8854C23.4743 -12.816 65.3523 17.2899 32.2177 23.0193Z" fill="url(#paint0_linear_687_71)"/>
<path d="M23.7045 31.2045C23.2374 31.2045 22.8365 31.0372 22.5019 30.7026C22.1673 30.3681 22 29.9672 22 29.5C22 29.0328 22.1673 28.6319 22.5019 28.2973C22.8365 27.9628 23.2374 27.7955 23.7045 27.7955C24.1717 27.7955 24.5726 27.9628 24.9072 28.2973C25.2418 28.6319 25.4091 29.0328 25.4091 29.5C25.4091 29.8093 25.3302 30.0934 25.1723 30.3523C25.0208 30.6111 24.8157 30.8194 24.5568 30.9773C24.3043 31.1288 24.0202 31.2045 23.7045 31.2045ZM23.7045 20.4091C23.2374 20.4091 22.8365 20.2418 22.5019 19.9072C22.1673 19.5726 22 19.1717 22 18.7045C22 18.2374 22.1673 17.8365 22.5019 17.5019C22.8365 17.1673 23.2374 17 23.7045 17C24.1717 17 24.5726 17.1673 24.9072 17.5019C25.2418 17.8365 25.4091 18.2374 25.4091 18.7045C25.4091 19.0139 25.3302 19.298 25.1723 19.5568C25.0208 19.8157 24.8157 20.024 24.5568 20.1818C24.3043 20.3333 24.0202 20.4091 23.7045 20.4091Z" fill="black"/>
</g>
<defs>
<linearGradient id="paint0_linear_687_71" x1="24" y1="-176.407" x2="20.003" y2="219.355" gradientUnits="userSpaceOnUse">
<stop offset="0.35" stop-color="white"/>
<stop offset="0.505" stop-color="#01C915"/>
<stop offset="0.735"/>
</linearGradient>
<clipPath id="clip0_687_71">
<rect width="48" height="48" fill="white"/>
</clipPath>
</defs>
</svg>
