<svg width="750" height="750" viewBox="0 0 750 750" fill="none" xmlns="http://www.w3.org/2000/svg">
<g clip-path="url(#clip0_1563_756)">
<path d="M395.859 81.3281C383.203 72.8906 366.797 72.8906 354.141 81.3281L194.883 187.5H56.25C25.1953 187.5 0 212.695 0 243.75V618.75C0 649.805 25.1953 675 56.25 675H300V562.5C300 521.133 333.633 487.5 375 487.5C416.367 487.5 450 521.133 450 562.5V675H693.75C724.805 675 750 649.805 750 618.75V243.75C750 212.695 724.805 187.5 693.75 187.5H555.117L395.859 81.3281ZM112.5 300H150C160.313 300 168.75 308.437 168.75 318.75V393.75C168.75 404.063 160.313 412.5 150 412.5H112.5C102.187 412.5 93.75 404.063 93.75 393.75V318.75C93.75 308.437 102.187 300 112.5 300ZM581.25 318.75C581.25 308.437 589.687 300 600 300H637.5C647.813 300 656.25 308.437 656.25 318.75V393.75C656.25 404.063 647.813 412.5 637.5 412.5H600C589.687 412.5 581.25 404.063 581.25 393.75V318.75ZM112.5 450H150C160.313 450 168.75 458.437 168.75 468.75V543.75C168.75 554.063 160.313 562.5 150 562.5H112.5C102.187 562.5 93.75 554.063 93.75 543.75V468.75C93.75 458.437 102.187 450 112.5 450ZM581.25 468.75C581.25 458.437 589.687 450 600 450H637.5C647.813 450 656.25 458.437 656.25 468.75V543.75C656.25 554.063 647.813 562.5 637.5 562.5H600C589.687 562.5 581.25 554.063 581.25 543.75V468.75ZM271.875 281.25C271.875 253.9 282.74 227.669 302.08 208.33C321.419 188.99 347.65 178.125 375 178.125C402.35 178.125 428.581 188.99 447.92 208.33C467.26 227.669 478.125 253.9 478.125 281.25C478.125 308.6 467.26 334.831 447.92 354.17C428.581 373.51 402.35 384.375 375 384.375C347.65 384.375 321.419 373.51 302.08 354.17C282.74 334.831 271.875 308.6 271.875 281.25ZM375 225C364.687 225 356.25 233.437 356.25 243.75V281.25C356.25 291.563 364.687 300 375 300H412.5C422.813 300 431.25 291.563 431.25 281.25C431.25 270.937 422.813 262.5 412.5 262.5H393.75V243.75C393.75 233.437 385.313 225 375 225Z" fill="#0077FF"/>
</g>
<defs>
<clipPath id="clip0_1563_756">
<rect width="750" height="600" fill="white" transform="translate(0 75)"/>
</clipPath>
</defs>
</svg>
