<svg width="354" height="148" viewBox="0 0 354 148" fill="none" xmlns="http://www.w3.org/2000/svg">
<rect width="354" height="148" fill="white"/>
<path d="M143.12 27.77H145.34V28.58C145.34 33.17 140.45 36.38 134.9 37.22L133.97 35.21C138.77 34.58 143.12 31.88 143.12 28.58V27.77ZM144.17 27.77H146.36V28.58C146.36 31.88 150.74 34.58 155.54 35.21L154.58 37.22C149.06 36.38 144.17 33.17 144.17 28.58V27.77ZM134.72 26.57H154.79V28.58H134.72V26.57ZM132.47 39.17H157.04V41.21H132.47V39.17ZM143.69 40.43H146.18V46.67H143.69V40.43ZM135.59 49.7H154.31V51.74H135.59V49.7ZM135.59 44.06H138.05V50.48H135.59V44.06ZM179.778 25.19H182.268V52.37H179.778V25.19ZM161.628 27.5H164.088V34.67H171.918V27.5H174.408V45.83H161.628V27.5ZM164.088 36.65V43.79H171.918V36.65H164.088ZM207.113 38.78H209.603V43.52H207.113V38.78ZM196.103 37.91H220.613V39.92H196.103V37.91ZM208.343 42.77C214.163 42.77 217.643 44.48 217.643 47.54C217.643 50.57 214.163 52.28 208.343 52.28C202.523 52.28 199.043 50.57 199.043 47.54C199.043 44.48 202.523 42.77 208.343 42.77ZM208.343 44.69C204.113 44.69 201.563 45.71 201.563 47.54C201.563 49.34 204.113 50.36 208.343 50.36C212.603 50.36 215.123 49.34 215.123 47.54C215.123 45.71 212.603 44.69 208.343 44.69ZM206.753 27.44H208.973V28.25C208.973 32.63 203.993 35.57 198.383 36.26L197.483 34.28C202.343 33.77 206.753 31.34 206.753 28.25V27.44ZM207.803 27.44H209.993V28.25C209.993 31.34 214.403 33.77 219.263 34.28L218.363 36.26C212.753 35.57 207.803 32.63 207.803 28.25V27.44ZM198.353 26.45H218.423V28.46H198.353V26.45Z" fill="black"/>
</svg>
